HIERARCHY
ROOT Hips
{
	OFFSET 0.00 0.00 0.00
	CHANNELS 6 Xposition Yposition Zposition Xrotation Yrotation Zrotation
	JOINT Spine
	{
		OFFSET 0.00000 4.88528 0.00000
		CHANNELS 3 Xrotation Yrotation Zrotation
		JOINT Head
		{
			OFFSET 0.00000 16.49416 0.00000
			CHANNELS 3 Xrotation Yrotation Zrotation
			End Site
			{
				OFFSET 0.00000 4.52755 0.00000
			}
		}
		JOINT LeftShoulder
		{
			OFFSET 0.00000 10.66345 0.00000
			CHANNELS 3 Xrotation Yrotation Zrotation
			JOINT LeftArm
			{
				OFFSET 7.53191 0.00000 0.00000
				CHANNELS 3 Xrotation Yrotation Zrotation
				JOINT LeftForeArm
				{
					OFFSET 10.22920 0.00000 0.00000
					CHANNELS 3 Yrotation Zrotation Xrotation
					JOINT LeftHand
					{
						OFFSET 8.67349 0.00000 0.00000
						CHANNELS 3 Xrotation Yrotation Zrotation
						JOINT LeftHandThumb1
						{
							OFFSET 0.00000 0.00000 0.00000
							CHANNELS 3 Xrotation Zrotation Yrotation
							End Site
							{
								OFFSET 0.00000 0.00000 3.93700
							}
						}
						End Site
						{
							OFFSET 3.93700 0.00000 0.00000
						}
					}
				}
			}
		}
		JOINT RightShoulder
		{
			OFFSET 0.00000 10.66345 0.00000
			CHANNELS 3 Xrotation Yrotation Zrotation
			JOINT RightArm
			{
				OFFSET -7.53191 0.00000 0.00000
				CHANNELS 3 Xrotation Yrotation Zrotation
				JOINT RightForeArm
				{
					OFFSET -10.22920 0.00000 0.00000
					CHANNELS 3 Yrotation Zrotation Xrotation
					JOINT RightHand
					{
						OFFSET -8.67349 0.00000 0.00000
						CHANNELS 3 Xrotation Yrotation Zrotation
						JOINT RightHandThumb1
						{
							OFFSET 0.00000 0.00000 0.00000
							CHANNELS 3 Xrotation Zrotation Yrotation
							End Site
							{
								OFFSET 0.00000 0.00000 3.93700
							}
						}
						End Site
						{
							OFFSET -3.93700 0.00000 0.00000
						}
					}
				}
			}
		}
	}
	JOINT LeftUpLeg
	{
		OFFSET 2.67219 0.00000 0.00000
		CHANNELS 3 Xrotation Yrotation Zrotation
		JOINT LeftLeg
		{
			OFFSET 0.00000 -16.26339 0.00000
			CHANNELS 3 Xrotation Yrotation Zrotation
			JOINT LeftFoot
			{
				OFFSET 0.00000 -14.32816 0.00000
				CHANNELS 3 Xrotation Yrotation Zrotation
				JOINT LeftToeBase
				{
					OFFSET 0.00000 -1.30219 4.85985
					CHANNELS 3 Xrotation Yrotation Zrotation
					End Site
					{
						OFFSET 0.00000 0.00000 2.95275
					}
				}
			}
		}
	}
	JOINT RightUpLeg
	{
		OFFSET -2.67219 0.00000 0.00000
		CHANNELS 3 Xrotation Yrotation Zrotation
		JOINT RightLeg
		{
			OFFSET 0.00000 -16.26339 0.00000
			CHANNELS 3 Xrotation Yrotation Zrotation
			JOINT RightFoot
			{
				OFFSET 0.00000 -14.32816 0.00000
				CHANNELS 3 Xrotation Yrotation Zrotation
				JOINT RightToeBase
				{
					OFFSET 0.00000 -1.30219 4.85985
					CHANNELS 3 Xrotation Yrotation Zrotation
					End Site
					{
						OFFSET 0.00000 0.00000 2.95275
					}
				}
			}
		}
	}
}
MOTION
Frames: 13
Frame Time: 0.008333
 0.7456 34.2393 -2.6471 25.9270 -21.4166 -11.3191 -12.1601 0.9130 1.7235 4.5630 3.1542 12.2217 30.9242 29.2672 17.5594 -70.3307 -0.5683 -50.8006 -1.6446 0.0000 -2.4353 0.8013 -12.5532 3.6821 33.1476 -0.0000 26.2537 -2.7754 -2.7914 -22.1466 -12.9392 -8.2798 49.6809 15.8658 0.0000 6.1370 -0.3335 4.0737 4.6836 32.8623 0.0000 -24.3270 -26.4167 -3.3294 16.9756 10.6733 0.0000 -0.0000 -2.4894 11.4483 -28.7616 0.9051 -0.0000 0.0000 -14.1425 -9.3835 -5.8481 96.4502 0.0000 -0.0000 41.0759 -8.2394 3.5973 32.9456 0.0000 0.0000
 0.7002 34.2353 -2.6204 25.8450 -20.9720 -11.6567 -12.2595 0.7256 1.8319 4.6064 2.8773 12.2753 30.7880 29.1575 17.6893 -70.2168 -0.8127 -50.7426 -1.8093 0.0000 -2.1594 0.8101 -12.5435 3.7250 33.1476 -0.0000 26.2537 -2.6970 -3.0786 -22.2223 -12.7740 -8.6184 49.3700 15.4864 0.0000 5.9639 -0.3279 4.0520 4.6309 32.8623 0.0000 -24.3270 -26.4041 -3.2382 17.1212 10.6741 -0.0000 0.0000 -2.7354 11.2731 -28.6959 1.3505 -0.0000 -0.0000 -13.7097 -9.7837 -5.6474 96.3897 -0.0000 0.0000 40.9838 -8.4037 3.6073 33.1280 0.0000 0.0000
 0.6599 34.2280 -2.5924 25.8052 -20.4749 -11.9540 -12.3829 0.5081 1.9139 4.6314 2.5588 12.3478 30.6445 29.0552 17.8041 -70.0533 -1.1139 -50.6741 -1.9855 0.0000 -1.9878 0.8483 -12.5343 3.9032 33.1476 -0.0000 26.2537 -2.6517 -3.3395 -22.3168 -12.6143 -8.9490 49.0666 15.0360 0.0000 5.7422 -0.3214 4.0307 4.5624 32.8623 0.0000 -24.3270 -26.4189 -3.1776 17.2196 10.6352 0.0000 -0.0000 -2.8249 11.0301 -28.9995 1.2373 0.0000 -0.0000 -13.2426 -10.1667 -5.5261 96.2681 -0.0000 0.0000 41.0430 -8.4979 3.7799 32.9705 -0.0000 -0.0000
 0.6203 34.2182 -2.5661 25.8203 -20.0225 -12.2472 -12.5568 0.3627 2.0173 4.6271 2.2070 12.3795 30.4853 28.9400 17.9293 -69.8456 -1.4453 -50.5718 -2.1579 -0.0000 -1.8069 0.8804 -12.5442 4.0471 33.1476 -0.0000 26.2537 -2.7303 -3.5642 -22.4373 -12.4090 -9.4041 48.7842 14.6059 0.0000 5.8122 -0.3385 4.1397 4.6784 32.8623 0.0000 -24.3270 -26.5002 -2.9932 17.3260 10.5602 0.0000 -0.0000 -3.0061 10.7804 -28.9553 1.2849 -0.0000 -0.0000 -12.7827 -10.4819 -5.3745 96.0956 0.0000 0.0000 41.2083 -8.6103 3.9528 32.9873 0.0000 0.0000
 0.5793 34.2086 -2.5492 25.8536 -19.6605 -12.5146 -12.7290 0.3062 2.0846 4.5461 1.8716 12.4785 30.3335 28.8661 18.0657 -69.7264 -1.7096 -50.4323 -2.3008 -0.0000 -1.7035 0.9107 -12.5182 4.1943 33.1476 -0.0000 26.2537 -2.6628 -3.8428 -22.4884 -12.4346 -9.7598 48.4582 14.0681 0.0000 5.6972 -0.3349 3.9267 4.8793 32.8623 0.0000 -24.3270 -26.6199 -2.6650 17.4531 10.4499 -0.0000 0.0000 -3.1832 10.5299 -28.8431 1.2041 0.0000 0.0000 -12.3378 -10.6962 -5.2148 95.8943 -0.0000 -0.0000 41.3736 -8.8158 4.0816 32.9864 0.0000 0.0000
 0.5436 34.1952 -2.5333 25.9679 -19.3219 -12.6948 -12.9764 0.2762 2.0995 4.4391 1.5286 12.5400 30.2327 28.8167 18.1441 -69.5816 -2.0417 -50.2410 -2.4567 -0.0000 -1.6548 0.9620 -12.5247 4.4275 33.1476 -0.0000 26.2537 -2.7581 -4.0401 -22.5518 -12.3233 -10.1339 48.1438 13.5451 0.0000 5.5747 -0.3238 3.9659 4.6714 32.8623 0.0000 -24.3270 -26.7911 -2.2725 17.4874 10.2558 0.0000 -0.0000 -3.4590 10.3902 -28.0557 1.4374 0.0000 -0.0000 -11.9330 -10.8168 -5.1196 95.6452 0.0000 -0.0000 41.4928 -8.9870 4.4720 32.9800 -0.0000 0.0000
 0.5085 34.1802 -2.5207 26.0916 -18.9337 -12.8485 -13.1917 0.2543 2.0636 4.2806 1.1313 12.6516 30.1240 28.7617 18.2428 -69.5241 -2.2752 -50.0291 -2.6146 -0.0000 -1.5762 0.9967 -12.5876 4.5644 33.1476 -0.0000 26.2537 -2.9767 -4.2117 -22.6966 -12.0708 -10.5598 47.9665 13.0056 0.0000 5.5696 -0.3037 4.1946 4.1446 32.8623 0.0000 -24.3270 -26.9666 -1.8705 17.4562 10.0221 0.0000 -0.0000 -3.4885 10.1768 -27.4719 0.4824 -0.0000 0.0000 -11.4775 -10.9639 -5.0518 95.3432 0.0000 0.0000 41.4838 -9.0607 4.5873 32.9264 -0.0000 -0.0000
 0.4765 34.1633 -2.5099 26.2751 -18.5374 -12.9490 -13.4596 0.2038 1.9987 4.1324 0.7823 12.7215 30.1178 28.7264 18.2721 -69.5744 -2.3923 -49.7491 -2.8108 -0.0000 -1.4556 1.0199 -12.7111 4.6255 33.1476 -0.0000 26.2537 -3.2410 -4.2794 -22.8409 -11.8491 -11.0946 47.7643 12.4947 0.0000 5.4418 -0.3022 4.0950 4.2244 32.8623 0.0000 -24.3270 -27.1976 -1.4279 17.3432 9.7501 -0.0000 -0.0000 -3.9333 9.9967 -25.8722 1.1287 0.0000 -0.0000 -11.0271 -11.0914 -5.0010 94.9642 -0.0000 -0.0000 41.4261 -9.0384 4.4700 32.9868 0.0000 0.0000
 0.4432 34.1464 -2.5052 26.5360 -18.1666 -13.0429 -13.7849 0.1783 1.9385 3.9378 0.4061 12.7876 30.1356 28.7541 18.2796 -69.6665 -2.5530 -49.4924 -3.0043 -0.0000 -1.4046 1.0719 -12.7018 4.8637 33.1476 -0.0000 26.2537 -3.4687 -4.3902 -23.0015 -11.6908 -11.5777 47.6225 11.9448 0.0000 5.2895 -0.2855 4.1229 3.9643 32.8623 0.0000 -24.3270 -27.4808 -1.0257 17.2439 9.4393 0.0000 0.0000 -4.1419 9.9805 -25.0700 1.7474 -0.0000 -0.0000 -10.6265 -11.1923 -4.9076 94.5249 -0.0000 0.0000 41.3998 -9.0228 4.4169 33.0071 0.0000 0.0000
 0.4107 34.1289 -2.5055 26.8200 -17.8018 -13.1318 -14.0991 0.1742 1.8854 3.6810 0.0207 12.8323 30.1577 28.7593 18.3011 -69.7796 -2.5670 -49.1962 -3.2743 -0.0000 -1.3070 1.1350 -12.6888 5.1540 33.1476 -0.0000 26.2537 -3.5999 -4.5607 -23.1689 -11.6546 -12.0231 47.5144 11.4541 0.0000 5.1733 -0.2765 4.1649 3.8015 32.8623 0.0000 -24.3270 -27.7564 -0.6957 17.1149 9.0992 0.0000 0.0000 -3.9900 10.1098 -24.6921 0.1082 -0.0000 -0.0000 -10.2214 -11.2507 -4.7727 94.0302 0.0000 -0.0000 41.3542 -9.0607 4.4939 33.1952 0.0000 0.0000
 0.3785 34.1112 -2.5076 27.1541 -17.4040 -13.2292 -14.4388 0.1346 1.8504 3.4123 -0.3773 12.8535 30.1951 28.7778 18.3013 -69.8777 -2.5641 -48.8803 -3.5856 -0.0000 -1.2129 1.1954 -12.6709 5.4339 33.1476 -0.0000 26.2537 -3.7163 -4.6715 -23.3090 -11.5987 -12.4636 47.3559 10.9586 0.0000 4.9649 -0.2434 4.1430 3.3652 32.8623 0.0000 -24.3270 -28.0626 -0.4452 16.9621 8.7368 -0.0000 -0.0000 -4.0691 10.5225 -23.9895 0.0873 -0.0000 0.0000 -9.8027 -11.3423 -4.5919 93.4631 -0.0000 0.0000 41.3496 -9.1143 4.6041 33.1536 -0.0000 -0.0000
 0.3522 34.0920 -2.5149 27.5507 -16.9982 -13.2961 -14.8135 0.0629 1.8193 3.1041 -0.7526 12.8200 30.2328 28.8142 18.2683 -69.9815 -2.5716 -48.5563 -3.8482 -0.0000 -1.2070 1.2859 -12.6161 5.8676 33.1476 -0.0000 26.2537 -3.7551 -4.7906 -23.4752 -11.6616 -12.8988 47.2444 10.4837 0.0000 4.8832 -0.2400 4.3324 3.1736 32.8623 0.0000 -24.3270 -28.4151 -0.2914 16.7332 8.3657 0.0000 0.0000 -4.1357 11.0410 -22.7928 -0.7207 -0.0000 -0.0000 -9.4359 -11.4518 -4.4387 92.8532 -0.0000 0.0000 41.3596 -9.1939 4.7040 33.0636 -0.0000 0.0000
 0.3244 34.0707 -2.5217 27.9572 -16.5943 -13.3973 -15.1760 -0.0206 1.8276 2.7427 -1.0998 12.7850 30.2123 28.8664 18.2531 -70.0592 -2.5137 -48.2265 -4.1127 -0.0000 -1.1642 1.3670 -12.6372 6.2251 33.1476 -0.0000 26.2537 -3.8440 -4.8498 -23.6665 -11.5741 -13.2550 47.1805 10.0963 0.0000 4.8140 -0.2182 4.2128 2.9680 32.8623 0.0000 -24.3270 -28.7358 -0.2892 16.5096 8.0017 -0.0000 -0.0000 -4.4438 11.8176 -21.4181 -0.3547 0.0000 -0.0000 -9.0352 -11.5448 -4.2183 92.1724 0.0000 0.0000 41.3723 -9.3326 4.9296 33.1281 0.0000 -0.0000
